<svg xmlns="http://www.w3.org/2000/svg" width="45" height="45" viewBox="0 0 45 45">
    <g fill="none" fill-rule="evenodd">
        <g fill-rule="nonzero">
            <g>
                <g>
                    <path fill="#4197D3" stroke="#3C96D5" stroke-width=".5" d="M19.827 16.302l-2.97-2.075c-.388-.27-.842-.413-1.312-.413-.749 0-1.451.367-1.88.98l-.689.989c-1.155-.775-2.444-1.857-3.673-3.085-1.228-1.23-2.31-2.518-3.084-3.673l.987-.69c1.036-.721 1.291-2.153.568-3.192L5.699 2.174c-.434-.62-1.134-.99-1.872-.99-.256 0-.507.044-.746.133-.272.1-.524.223-.772.379l-.41.288c-.103.08-.198.167-.29.258-.5.5-.855 1.134-1.055 1.882-.854 3.204 1.263 8.048 5.269 12.054 3.364 3.364 7.405 5.454 10.547 5.455 0 0 0 0 0 0 .538 0 1.045-.063 1.507-.186.749-.2 1.382-.555 1.881-1.055.092-.091.179-.187.272-.307l.29-.413c.14-.227.264-.48.364-.752.35-.944-.003-2.02-.857-2.618zm-.002 2.3c-.08.214-.175.41-.27.563l-.262.375c-.056.072-.118.139-.183.203-.384.385-.879.66-1.47.818-.384.103-.811.155-1.27.155 0 0 0 0 0 0-2.908 0-6.7-1.987-9.9-5.186C2.749 11.807.68 7.214 1.44 4.36c.158-.59.433-1.084.818-1.47.064-.064.13-.126.185-.169l.372-.262c.175-.109.37-.204.584-.283.137-.05.28-.076.428-.076.44 0 .858.224 1.121.6l2.074 2.967c.434.624.282 1.483-.34 1.917l-1.352.943c-.2.14-.255.412-.125.62.818 1.3 2.043 2.792 3.45 4.199s2.898 2.632 4.2 3.45c.207.13.48.075.62-.125l.943-1.352c.418-.6 1.311-.761 1.915-.34l2.969 2.074c.512.359.728.996.523 1.55z" transform="translate(-20 -6830) translate(20 6830) translate(12 12)"/>
                    <path fill="#EB9AA7" stroke="#EB9AA7" stroke-width=".25" d="M18.3 3.702C16.323 1.726 13.7.542 10.914.368c-.251-.016-.47.177-.486.43-.016.252.176.47.429.485 2.563.16 4.975 1.25 6.793 3.067 1.817 1.817 2.906 4.23 3.067 6.793.015.243.217.43.457.43l.029-.001c.252-.016.444-.234.429-.486-.175-2.786-1.359-5.409-3.334-7.384z" transform="translate(-20 -6830) translate(20 6830) translate(12 12)"/>
                    <path fill="#EB9AA7" stroke="#EB9AA7" stroke-width=".25" d="M10.686 4.028c1.894.119 3.677.924 5.02 2.267 1.343 1.343 2.148 3.126 2.267 5.02.015.243.217.43.457.43l.03-.001c.252-.016.444-.234.428-.487-.133-2.117-1.032-4.11-2.533-5.61-1.502-1.502-3.495-2.401-5.612-2.534-.253-.014-.47.176-.486.429-.016.253.176.47.429.486z" transform="translate(-20 -6830) translate(20 6830) translate(12 12)"/>
                    <path fill="#EB9AA7" stroke="#EB9AA7" stroke-width=".25" d="M10.514 6.773c1.225.076 2.379.597 3.248 1.466.869.87 1.39 2.023 1.467 3.248.015.243.217.43.457.43.01 0 .02 0 .029-.002.252-.016.444-.233.429-.486-.091-1.448-.707-2.81-1.734-3.838-1.027-1.027-2.39-1.643-3.839-1.733-.256-.018-.47.176-.486.428-.016.253.176.47.429.487z" transform="translate(-20 -6830) translate(20 6830) translate(12 12)"/>
                </g>
            </g>
        </g>
    </g>
</svg>
