<svg xmlns="http://www.w3.org/2000/svg" xmlns:xlink="http://www.w3.org/1999/xlink" width="40" height="41" viewBox="0 0 40 41">
    <defs>
        <path id="0de400i2wa" d="M0.062 0.081L27.577 0.081 27.577 33.103 0.062 33.103z"/>
        <path id="mo4pu8ovic" d="M0 0.04L9.384 0.04 9.384 9.454 0 9.454z"/>
    </defs>
    <g fill="none" fill-rule="evenodd">
        <g>
            <g>
                <g>
                    <path d="M0 0H40V40H0z" transform="translate(-239 -4124) translate(239 4124.22)"/>
                </g>
                <g>
                    <g transform="translate(-239 -4124) translate(239 4124.22) translate(1.5 2.5) translate(8.38 .023)">
                        <mask id="r22ccmpb4b" fill="#fff">
                            <use xlink:href="#0de400i2wa"/>
                        </mask>
                        <path fill="#4197D3" d="M13.808 31.652c-6.803 0-12.318-5.514-12.318-12.317 0-6.802 5.513-12.317 12.316-12.317 6.802 0 12.317 5.513 12.318 12.315-.007 6.8-5.517 12.31-12.316 12.319zm-.798-27.7h1.595v1.64c-.264-.016-.53-.025-.797-.025-.269 0-.534.01-.798.024V3.952zm-1.466-1.448h4.528v-.976h-4.528v.976zM.667 23.361c.28.922.64 1.818 1.107 2.66 3.224 5.82 10.29 8.596 16.74 6.25 7.144-2.6 10.829-10.497 8.23-17.642-1.7-4.671-5.786-8.064-10.69-8.875v-1.8h.742c.4 0 .724-.324.724-.724V.805c0-.4-.324-.724-.724-.724H10.82c-.4 0-.724.324-.725.724V3.23c0 .4.325.724.725.724h.742v1.8c-4.9.82-8.981 4.207-10.69 8.872l-.436 1.448c-.203.831-.327 1.68-.372 2.535l-.002 1.448.02.32c.075.986.275 1.958.56 2.903l.025.081z" mask="url(#r22ccmpb4b)"/>
                    </g>
                    <path fill="#4197D3" d="M30.655 20.08h.515c-.15 1.885-.893 3.674-2.121 5.113l-.362-.363c-.283-.282-.742-.282-1.024 0-.283.283-.283.742 0 1.025l.362.362c-1.439 1.228-3.228 1.97-5.113 2.121v-.515c0-.4-.324-.725-.724-.725-.4 0-.724.325-.724.725v.515c-1.885-.15-3.675-.893-5.113-2.121l.362-.362c.283-.283.283-.742 0-1.025-.283-.282-.741-.282-1.024 0l-.362.363c-1.229-1.439-1.971-3.228-2.122-5.113h.515c.4 0 .724-.324.724-.724 0-.4-.324-.725-.724-.725h-.515c.15-1.885.893-3.674 2.121-5.112l.362.362c.288.278.746.27 1.024-.018.271-.28.271-.725 0-1.006l-.362-.362c1.438-1.229 3.228-1.971 5.113-2.122v.516c0 .4.324.724.724.724.4 0 .724-.324.724-.724v-.516c1.885.15 3.675.893 5.113 2.122l-.362.362c-.283.283-.283.741 0 1.024.283.283.741.283 1.024 0l.362-.362c1.228 1.438 1.97 3.227 2.122 5.112h-.515c-.4 0-.724.325-.724.725 0 .4.324.724.724.724zm-1.03-8.074c-.014-.016-.025-.033-.042-.048-.015-.015-.031-.029-.048-.042-4.07-4.032-10.63-4.032-14.699 0-.016.014-.033.025-.049.042-.015.016-.026.032-.039.048-4.032 4.07-4.032 10.628 0 14.698.014.016.025.034.042.05.016.016.033.027.05.041 4.069 4.031 10.626 4.031 14.695 0 .017-.014.035-.025.05-.041.016-.016.027-.034.042-.05 4.032-4.07 4.032-10.628 0-14.698h-.002z" transform="translate(-239 -4124) translate(239 4124.22) translate(1.5 2.5)"/>
                    <path fill="#4197D3" d="M22.911 19.046v-4.934c0-.4-.324-.725-.724-.725-.4 0-.724.325-.724.725v5.244c0 .197.08.387.224.523l2.487 2.375c.29.276.748.265 1.025-.024.276-.29.265-.749-.025-1.025l-2.263-2.16z" transform="translate(-239 -4124) translate(239 4124.22) translate(1.5 2.5)"/>
                    <g transform="translate(-239 -4124) translate(239 4124.22) translate(1.5 2.5) translate(0 14.609)">
                        <mask id="mjv5h6phid" fill="#fff">
                            <use xlink:href="#mo4pu8ovic"/>
                        </mask>
                        <path fill="#EB9AA7" d="M9.384.04h-6.19c-.4 0-.725.324-.725.724 0 .4.325.724.725.724h5.754L9.384.04zm-.809 3.983H.725c-.4 0-.725.324-.725.724 0 .4.324.724.724.724h7.85l.001-1.448zm.371 3.983H3.194c-.4 0-.725.324-.725.724 0 .4.325.724.725.724h6.19l-.438-1.448z" mask="url(#mjv5h6phid)"/>
                    </g>
                </g>
            </g>
        </g>
    </g>
</svg>
