<svg xmlns="http://www.w3.org/2000/svg" xmlns:xlink="http://www.w3.org/1999/xlink" width="42" height="41" viewBox="0 0 42 41">
    <defs>
        <path id="6i1sss0cqa" d="M0 0.161L14.659 0.161 14.659 14.82 0 14.82z"/>
    </defs>
    <g fill="none" fill-rule="evenodd">
        <g>
            <g>
                <path d="M0.5 0H40.5V40H0.5z" transform="translate(-77 -3926) translate(77.5 3926.22)"/>
                <g>
                    <path fill="#4196D2" d="M17.447 17.371H6.92c-.287 0-.52.233-.52.52 0 .288.233.521.52.521h10.527c.287 0 .52-.233.52-.52 0-.288-.233-.52-.52-.52M15.614 19.974H6.92c-.288 0-.52.232-.52.52 0 .287.232.52.52.52h8.694c.287 0 .52-.233.52-.52 0-.288-.233-.52-.52-.52M13.083 22.575H6.92c-.288 0-.52.233-.52.52 0 .289.232.521.52.521h6.163c.287 0 .52-.232.52-.52 0-.288-.233-.52-.52-.52M12.692 26.448h-2.129c-.288 0-.52.233-.52.52 0 .288.232.52.52.52h2.129c.288 0 .52-.232.52-.52 0-.287-.232-.52-.52-.52M8.481 26.448H6.92c-.288 0-.52.233-.52.52 0 .288.232.52.52.52H8.48c.288 0 .52-.232.52-.52 0-.287-.232-.52-.52-.52M31.156 15.577c.188.178.227.458.105.683l-2.476 4.551c.655.476 1.942 1.506 3.234 3.045 1.07 1.265 1.915 2.617 2.526 4.012.768 1.756 1.157 3.589 1.157 5.446 0 2.467-2.032 4.478-4.523 4.478H20.152c-2.492 0-4.524-2.01-4.524-4.478 0-1.857.39-3.69 1.157-5.446.613-1.395 1.462-2.747 2.526-4.012 1.268-1.505 2.531-2.525 3.193-3.01l-2.672-3.998c-.15-.227-.122-.53.068-.722.908-.923 1.836-1.356 2.923-1.356.86 0 1.75.258 2.905.678.087.034.175.048.278.048.335 0 .748-.174 1.185-.351.553-.232 1.19-.49 1.885-.49.758 0 1.438.301 2.08.922m-3.314 5.985H23.48c-.438.307-1.881 1.362-3.3 3.059-2.243 2.684-3.385 5.61-3.385 8.693 0 1.832 1.507 3.324 3.357 3.324h11.027c1.85 0 3.358-1.492 3.348-3.324 0-3.088-1.138-6.01-3.388-8.693-1.417-1.697-2.855-2.756-3.297-3.06m-.208-5.358c-.52.217-1.065.438-1.633.438-.234 0-.462-.04-.676-.117-1.034-.379-1.81-.61-2.502-.61-.645 0-1.185.212-1.749.692l2.541 3.801h4.062l2.332-4.291c-.398-.278-.715-.318-.938-.318-.46 0-.938.197-1.437.405" transform="translate(-77 -3926) translate(77.5 3926.22) translate(1 .5)"/>
                    <path fill="#EA9AA6" d="M28.508 25.978c.277 0 .502.222.502.496s-.225.496-.502.496h-1.313l.022.03c.2.274.344.59.418.926h.873c.258 0 .47.192.5.438l.002.057c0 .276-.225.498-.502.498l-.872-.001-.02.083c-.255 1.051-1.193 1.833-2.31 1.885l-.115.002h-.066l2.408 2.244c.182.176.205.454.056.655l-.04.048c-.19.198-.506.208-.707.02l-3.328-3.104c-.094-.092-.152-.22-.152-.348-.005-.277.22-.503.503-.508h1.327c.627 0 1.173-.386 1.39-.94l.014-.037h-2.734c-.256 0-.469-.192-.499-.438l-.004-.059c0-.273.227-.495.503-.495h2.73l-.01-.028c-.207-.516-.709-.889-1.296-.924l-.093-.004h-1.33c-.277 0-.504-.222-.504-.496s.227-.496.503-.496h4.646z" transform="translate(-77 -3926) translate(77.5 3926.22) translate(1 .5)"/>
                    <path fill="#4196D2" d="M4.534 13.846V30.22h9.486v1.041H4.014c-.288 0-.52-.232-.52-.52v-17.36l1.04.464zM12.265 3.16h10.081c.288 0 .522.232.522.52v9.887h-1.042V4.2H12.853l-.588-1.04z" transform="translate(-77 -3926) translate(77.5 3926.22) translate(1 .5)"/>
                    <path fill="#EA9AA6" d="M34.993 38.84c-.223 0-.438-.126-.541-.342-.145-.3-.018-.659.282-.802 1.818-.87 2.436-2.912 1.887-6.245-.053-.328.168-.636.496-.69.323-.054.637.167.692.495.637 3.877-.223 6.41-2.556 7.525-.084.04-.172.059-.26.059M10.995 5.161c-.236-.248-.629-.258-.877-.022L6.36 8.711 4.558 6.867c-.24-.245-.633-.25-.878-.01-.244.239-.25.631-.01.877l2.23 2.282.023.02c.007.008.014.015.022.021.01.008.018.015.027.02.007.007.016.014.025.019l.027.017.025.015.032.016.024.011.035.013.024.007.037.011c.007 0 .014.004.022.005l.044.007.016.001.06.003c.021 0 .04 0 .06-.002l.016-.002.041-.006.021-.005.036-.009.023-.007c.012-.004.022-.007.032-.012.008-.003.017-.008.026-.01.008-.005.018-.01.029-.014l.024-.014.028-.016.024-.017.025-.018.023-.02.02-.018 4.202-3.993c.247-.236.258-.63.022-.878" transform="translate(-77 -3926) translate(77.5 3926.22) translate(1 .5)"/>
                    <g transform="translate(-77 -3926) translate(77.5 3926.22) translate(1 .5) translate(0 .359)">
                        <mask id="mpobxskyeb" fill="#fff">
                            <use xlink:href="#6i1sss0cqa"/>
                        </mask>
                        <path fill="#4196D2" d="M1.19 7.49c0 3.39 2.75 6.139 6.14 6.139 3.39 0 6.138-2.749 6.138-6.139S10.72 1.351 7.33 1.351c-3.39 0-6.14 2.749-6.14 6.139M7.33.16c4.048 0 7.33 3.282 7.33 7.33s-3.282 7.33-7.33 7.33C3.28 14.82 0 11.538 0 7.49S3.28.16 7.33.16" mask="url(#mpobxskyeb)"/>
                    </g>
                </g>
            </g>
        </g>
    </g>
</svg>
