<svg xmlns="http://www.w3.org/2000/svg" width="29" height="30" viewBox="0 0 29 30">
    <g fill="none" fill-rule="evenodd">
        <g fill-rule="nonzero">
            <g>
                <path fill="#4197D3" d="M25.37 10.574H18.95V3.713c.006-.983-.373-1.927-1.051-2.622-.68-.704-1.607-1.097-2.574-1.09h-11.7C1.624.002.003 1.663 0 3.712v7.99c.003 2.05 1.624 3.71 3.624 3.713h.262V17.7c-.006.706.414 1.343 1.056 1.602.199.081.411.123.625.125.446 0 .872-.185 1.182-.512l3.27-3.35v6.7c-.004.991.379 1.944 1.064 2.646.685.701 1.615 1.094 2.583 1.09h5.166l3.414 3.478c.313.333.745.522 1.196.522.214-.001.426-.044.626-.124.633-.263 1.045-.894 1.041-1.594V26h.262c2.002 0 3.626-1.662 3.629-3.713v-8c-.003-2.051-1.627-3.713-3.63-3.713zM9.398 14.191l-3.643 3.704c-.07.083-.186.11-.285.067-.105-.041-.173-.148-.168-.263v-3c0-.397-.313-.718-.7-.718h-.977c-1.227 0-2.223-1.02-2.223-2.278v-7.99c0-1.258.996-2.277 2.223-2.277h11.7c.59-.001 1.155.24 1.57.67.419.424.654 1.003.654 1.607v7.99c0 1.258-.996 2.278-2.224 2.278h-5.44c-.187 0-.365.076-.496.21h.01zm18.216 8.087c.001.608-.235 1.192-.656 1.622-.421.429-.992.668-1.586.665h-.98c-.388 0-.702.32-.702.717v3c.006.116-.061.223-.167.266-.105.043-.225.013-.3-.074l-3.629-3.699c-.13-.133-.306-.209-.49-.21h-5.437c-1.228 0-2.225-1.02-2.228-2.278v-6.87h3.886c1.885-.004 3.453-1.484 3.61-3.407h6.437c1.229 0 2.225 1.019 2.228 2.277l.014 7.99z" transform="translate(-37 -4154) translate(37 4154)"/>
                <path fill="#EB9AA7" d="M21.738 16.194l-3.196 3.12-1.308-1.292c-.135-.131-.32-.205-.511-.205-.4 0-.723.313-.723.7 0 .185.076.363.212.495l1.842 1.783c.135.132.319.206.51.205.2.003.393-.073.535-.21l3.684-3.566c.139-.133.217-.315.217-.504s-.078-.37-.217-.503c-.285-.28-.748-.29-1.045-.023zM9.282 3c-.194 0-.418.034-.642.074-.51.089-.98.325-1.354.678-.361.344-.383.907-.05 1.277.269.305.667.3 1.095 0 .026-.023.055-.045.085-.063.306-.23.69-.333 1.07-.29.317.001.6.197.708.491.09.283-.02.592-.27.757-.115.097-.237.187-.363.27-.718.493-1.05 1.375-.831 2.211.104.389.288.595.532.595.244 0 .414-.187.523-.57.1-.386.324-.73.638-.983.258-.206.537-.388.796-.594.803-.593 1.018-1.69.498-2.536-.533-.934-1.394-1.268-2.435-1.317zM9.995 10.004c-.265-.025-.527.069-.717.255-.191.186-.292.447-.276.714-.017.27.079.534.265.73.186.194.444.302.713.296.274.015.542-.089.737-.284.194-.196.296-.466.282-.742.012-.268-.09-.529-.283-.715-.192-.185-.455-.278-.72-.254z" transform="translate(-37 -4154) translate(37 4154)"/>
            </g>
        </g>
    </g>
</svg>
