<svg xmlns="http://www.w3.org/2000/svg" width="50" height="50" viewBox="0 0 50 50">
    <g fill="none" fill-rule="evenodd">
        <g fill-rule="nonzero">
            <g>
                <g>
                    <path fill="#3C96D5" d="M46.433.083H19.45c-1.809 0-3.288 1.442-3.333 3.25V20c.045 1.808 1.524 3.25 3.333 3.25h26.983c1.777-.044 3.206-1.474 3.25-3.25V3.333C49.64 1.557 48.21.127 46.433.083zm1.5 3.25V20c.002.195-.038.388-.116.567L38.8 11.883l9.1-8.8c.02.082.03.166.033.25zM32.367 14.55L19.233 1.85h27.434L33.55 14.55c-.35.264-.833.264-1.183 0zm-4.034-1.433l2.8 2.683c1.012.967 2.605.967 3.617 0l2.783-2.683 8.734 8.333H19.6l8.733-8.333zm-1.266-1.234l-9.017 8.684c-.072-.181-.111-.373-.117-.567V3.333c-.008-.083-.008-.167 0-.25l9.134 8.8z" transform="translate(-969 -744) translate(969 744) translate(0 13.333)"/>
                    <path fill="#EB9AA7" d="M13.983 2.833h-8.45c-.598 0-1.083-.485-1.083-1.083S4.935.667 5.533.667h8.45c.599 0 1.084.485 1.084 1.083s-.485 1.083-1.084 1.083zM13.983 16.317h-8.45c-.598 0-1.083-.485-1.083-1.084 0-.598.485-1.083 1.083-1.083h8.45c.599 0 1.084.485 1.084 1.083 0 .599-.485 1.084-1.084 1.084zM14.017 9.783H1.4C.802 9.783.317 9.298.317 8.7S.802 7.617 1.4 7.617h12.617c.598 0 1.083.485 1.083 1.083s-.485 1.083-1.083 1.083z" transform="translate(-969 -744) translate(969 744) translate(0 13.333)"/>
                </g>
            </g>
        </g>
    </g>
</svg>
