<svg xmlns="http://www.w3.org/2000/svg" width="25" height="30" viewBox="0 0 25 30">
    <g fill="none" fill-rule="evenodd">
        <g fill-rule="nonzero">
            <g>
                <path fill="#4197D3" d="M.026 0v30h24.557V0H.026zm22.8 28.242H1.784V1.758H7.05v4.12h10.508v-4.12h5.267v26.484zM15.8 1.758V4.12H8.809V1.758H15.8z" transform="translate(-37 -3769) translate(37 3769)"/>
                <path fill="#4197D3" d="M8.721 9.121L19.492 9.121 19.492 10.879 8.721 10.879zM5.117 9.121L6.963 9.121 6.963 10.879 5.117 10.879zM8.721 12.871L19.492 12.871 19.492 14.629 8.721 14.629zM5.117 12.871L6.963 12.871 6.963 14.629 5.117 14.629zM5.117 16.621L6.963 16.621 6.963 18.379 5.117 18.379zM8.721 16.621L19.492 16.621 19.492 18.379 8.721 18.379z" transform="translate(-37 -3769) translate(37 3769)"/>
                <path fill="#EB9AA7" d="M5.117 22.246L9.805 22.246 9.805 24.004 5.117 24.004zM14.805 23.132L13.551 21.879 12.308 23.121 14.805 25.618 18.551 21.871 17.308 20.629z" transform="translate(-37 -3769) translate(37 3769)"/>
            </g>
        </g>
    </g>
</svg>
