<?xml version="1.0" encoding="UTF-8"?>
<svg width="86px" height="62px" viewBox="0 0 86 62" version="1.1" xmlns="http://www.w3.org/2000/svg" xmlns:xlink="http://www.w3.org/1999/xlink">
    <title>Quotes</title>
    <g id="Easy-Claiming--changes-to-mobile" stroke="none" stroke-width="1" fill="none" fill-rule="evenodd">
        <g id="1.3-05A-TataAIA-Customer_service-Landing+Claims" transform="translate(-464.000000, -2246.000000)">
            <g id="Group-8" transform="translate(465.000000, 2242.000000)">
                <g id="Quotes" transform="translate(0.000000, 5.000000)">
                    <g id="noun_Quote_782552" transform="translate(2.178644, 4.050906)" fill="#3C96D4" fill-rule="nonzero" stroke="#3C96D4" stroke-width="0.75">
                        <g id="Group" transform="translate(0.000000, 0.897409)">
                            <path d="M18.2909226,0.509613101 C15.9284389,0.509613101 13.8443993,2.0318401 11.8274734,4.1590744 C9.81096949,6.28616801 7.8475093,9.12745179 6.11170074,12.2492902 C2.63952111,18.4928263 2.81398504e-07,25.7508051 2.81398504e-07,30.8479224 C2.81398504e-07,34.2774704 2.81398504e-07,37.7070184 2.81398504e-07,41.1365664 C2.81398504e-07,48.1851844 5.50950757,53.9753871 12.6629464,53.9753871 L22.5119048,53.9753871 C29.6653439,53.9753871 35.1748512,48.1853251 35.1748512,41.1365664 L35.1748512,31.4195841 C35.1748512,24.3708253 29.6359377,18.8005359 22.5119048,18.8005359 L15.7847848,18.8005359 C16.6944065,13.211252 17.9887003,8.02507195 19.6540185,2.2683558 C19.8677408,1.44005841 19.146375,0.509613101 18.2909226,0.509613101 L18.2909226,0.509613101 Z M64.7217262,0.509613101 C62.3592425,0.509613101 60.2752029,2.0318401 58.2582769,4.1590744 C56.2417731,6.28616801 54.2783129,9.12745179 52.5425043,12.2492902 C49.0703244,18.4928263 46.4308036,25.7508051 46.4308036,30.8479224 C46.4308036,34.2774704 46.4308036,37.7070184 46.4308036,41.1365664 C46.4308036,48.1851844 51.9403109,53.9753871 59.09375,53.9753871 L68.9427083,53.9753871 C76.0961475,53.9753871 81.6056548,48.1853251 81.6056548,41.1365664 L81.6056548,31.4195841 C81.6056548,24.3708253 76.0667413,18.8005359 68.9427083,18.8005359 L62.2155884,18.8005359 C63.12521,13.211252 64.4195039,8.02507195 66.084822,2.2683558 C66.2985444,1.44005841 65.5771786,0.509613101 64.7217262,0.509613101 L64.7217262,0.509613101 Z M16.2243298,4.11503549 C14.7334789,9.43544278 13.4609935,14.4691047 12.6629464,19.9877574 C12.53491,20.7938243 13.2540246,21.6245136 14.0699405,21.614524 L22.5119048,21.614524 C28.2050248,21.614524 32.3608631,25.8072255 32.3608631,31.4195841 L32.3608631,41.1365664 C32.3608631,46.7487842 28.1756186,51.161399 22.5119048,51.161399 L12.6629464,51.161399 C6.99923259,51.161399 2.81398838,46.7486435 2.81398838,41.1365664 C2.81398838,37.7070184 2.81398838,34.2774704 2.81398838,30.8479224 C2.81398838,26.7990156 5.26947439,19.5539812 8.57394033,13.6122453 C10.225892,10.6413774 12.0763706,7.96428981 13.850168,6.09369122 C14.6780433,5.22037001 15.4988836,4.57864003 16.2243298,4.11503549 Z M62.6551333,4.11503549 C61.1642824,9.43544278 59.891797,14.4691047 59.09375,19.9877574 C58.9657135,20.7938243 59.6848282,21.6245136 60.500744,21.614524 L68.9427083,21.614524 C74.6358283,21.614524 78.7916667,25.8072255 78.7916667,31.4195841 L78.7916667,41.1365664 C78.7916667,46.7487842 74.6064222,51.161399 68.9427083,51.161399 L59.09375,51.161399 C53.4300362,51.161399 49.2447917,46.7486435 49.2447917,41.1365664 C49.2447917,37.7070184 49.2447917,34.2774704 49.2447917,30.8479224 C49.2447917,26.7990156 51.7002777,19.5539812 55.0047439,13.6122453 C56.6566956,10.6413774 58.5071742,7.96428981 60.2809716,6.09369122 C61.1088469,5.22037001 61.9296872,4.57864003 62.6551333,4.11503549 Z" id="Shape"></path>
                        </g>
                    </g>
                    <path d="M12.6143173,4.95349793e-13 C5.70304961,3.37196783 1.49827719,8.62950181 -2.47674896e-13,15.7726019" id="Path-3" stroke="#EB9AA7" stroke-width="1.5" stroke-linecap="round"></path>
                    <path d="M60.4521869,0.601500933 C53.5409193,3.97346877 49.3361469,9.23100275 47.8378697,16.3741029" id="Path-3-Copy" stroke="#EB9AA7" stroke-width="1.5" stroke-linecap="round"></path>
                </g>
            </g>
        </g>
    </g>
</svg>