<svg xmlns="http://www.w3.org/2000/svg" width="25" height="30" viewBox="0 0 25 30">
    <g fill="none" fill-rule="evenodd">
        <g fill-rule="nonzero">
            <g>
                <path fill="#4197D3" d="M20.86 8.906h-8.438c-.324 0-.586.263-.586.586 0 .324.262.586.586.586h8.438c.323 0 .585-.262.585-.586 0-.323-.262-.586-.585-.586zM12.836 2.691c-.11-.109-.26-.171-.415-.171-.154 0-.305.062-.414.171-.109.11-.172.26-.172.415 0 .154.063.305.172.414.11.109.26.171.414.171.154 0 .306-.062.415-.171.109-.11.171-.26.171-.414 0-.155-.062-.306-.171-.415zM15.93 11.719h-3.508c-.324 0-.586.262-.586.586 0 .323.262.586.586.586h3.508c.324 0 .586-.263.586-.586 0-.324-.262-.586-.586-.586zM20.86 15.234h-8.438c-.324 0-.586.263-.586.586 0 .324.262.586.586.586h8.438c.323 0 .585-.262.585-.586 0-.323-.262-.586-.585-.586zM15.93 18.047h-3.508c-.324 0-.586.262-.586.586 0 .323.262.586.586.586h3.508c.324 0 .586-.263.586-.586 0-.324-.262-.586-.586-.586zM20.86 21.563h-8.438c-.324 0-.586.262-.586.585 0 .324.262.586.586.586h8.438c.323 0 .585-.262.585-.586 0-.323-.262-.585-.585-.585zM15.93 24.375h-3.508c-.324 0-.586.262-.586.586 0 .324.262.586.586.586h3.508c.324 0 .586-.262.586-.586 0-.324-.262-.586-.586-.586z" transform="translate(-41 -2086) translate(41 2086)"/>
                <path fill="#4197D3" d="M21.987 2.285h-4.475c-.647-.616-1.522-.996-2.484-.996h-.513C14.122.512 13.316 0 12.422 0c-.894 0-1.7.512-2.093 1.29h-.515c-.962 0-1.836.379-2.483.995H2.857C1.282 2.285 0 3.567 0 5.142v22.001C0 28.718 1.282 30 2.857 30h19.13c1.575 0 2.857-1.282 2.857-2.857v-22c0-1.576-1.282-2.858-2.857-2.858zm-12.172.176h.913c.263 0 .494-.176.565-.43.14-.506.604-.86 1.129-.86s.99.354 1.13.86c.07.254.3.43.564.43h.912c1.272 0 2.319.981 2.423 2.227H7.391C7.496 3.442 8.543 2.46 9.815 2.46zm13.857 24.682c0 .93-.756 1.685-1.685 1.685H2.857c-.93 0-1.685-.756-1.685-1.685v-22c0-.93.756-1.686 1.685-1.686H6.51c-.192.44-.299.926-.299 1.436v.38c0 .324.262.586.586.586h11.249c.323 0 .586-.262.586-.586v-.38c0-.51-.108-.996-.3-1.436h3.655c.929 0 1.685.756 1.685 1.685v22.001z" transform="translate(-41 -2086) translate(41 2086)"/>
                <path fill="#EB9AA7" d="M8.696 8.765c-.229-.228-.6-.228-.829 0l-2.505 2.506-.772-.772c-.229-.229-.6-.229-.829 0-.229.229-.229.6 0 .829l1.186 1.186c.115.114.265.172.415.172.15 0 .3-.058.414-.172l2.92-2.92c.229-.229.229-.6 0-.829zM7.266 21.563H4.453c-.323 0-.586.262-.586.585v2.813c0 .324.263.586.586.586h2.813c.323 0 .586-.262.586-.586v-2.813c0-.323-.263-.585-.586-.585zm-.586 2.812H5.04v-1.64h1.64v1.64zM7.266 15.234H4.453c-.323 0-.586.263-.586.586v2.813c0 .323.263.586.586.586h2.813c.323 0 .586-.263.586-.586V15.82c0-.323-.263-.586-.586-.586zm-.586 2.813H5.04v-1.64h1.64v1.64z" transform="translate(-41 -2086) translate(41 2086)"/>
            </g>
        </g>
    </g>
</svg>
