<svg xmlns="http://www.w3.org/2000/svg" width="30" height="23" viewBox="0 0 30 23">
    <g fill="none" fill-rule="evenodd">
        <g fill-rule="nonzero">
            <g>
                <path fill="#4197D3" d="M11.98 0c6.639 0 11.736 4.18 11.736 9.755 0 2.704-1.165 4.995-3.174 6.582-2.01 1.586-4.847 2.477-8.21 2.477-.887 0-1.827-.152-2.676-.306-2.059 2.189-4.367 3.25-4.505 3.312l-.002.001c-.081.036-.175.059-.276.059-.132 0-.26-.038-.37-.109l-.002-.002c-.195-.126-.31-.344-.31-.572v-4.471C2.232 15.312 0 13.005 0 9.756 0 4.259 5.308 0 11.98 0zm0 1.363l-.308.004c-5.851.125-10.309 3.795-10.309 8.39 0 2.78 2.096 4.829 3.896 6.067.184.126.295.338.295.561v3.64c.872-.511 2.157-1.354 3.348-2.696.161-.182.403-.259.635-.217.896.17 1.921.34 2.794.34 3.038 0 5.553-.794 7.294-2.144 1.742-1.351 2.726-3.248 2.726-5.553 0-4.768-4.405-8.391-10.37-8.391l-.001-.001z" transform="translate(-28 -1960) translate(28 1960)"/>
                <path fill="#EB9AA7" d="M25.333 9.802c-.354-.108-.741.09-.854.445-.112.355.09.742.444.856h.001c1.333.424 2.266.946 2.855 1.574.59.628.86 1.36.86 2.314 0 1.611-1.546 2.97-2.499 3.624-.183.126-.296.335-.296.562v2.132c-.472-.227-1.042-.56-1.601-1.188v-.002c-.162-.18-.405-.26-.64-.216-.215.042-.424.098-.63.153h-.002c-.356.096-.7.185-.986.185-1.746 0-2.9-.357-4.136-1.265v-.001c-.3-.22-.733-.153-.954.145-.223.3-.156.733.143.955h.002c1.464 1.075 2.94 1.529 4.944 1.529.497 0 .94-.122 1.34-.23h.002c.07-.02.134-.035.2-.052.64.63 1.304 1.054 1.83 1.3.567.265.939.347 1.03.364h.003c.037.007.084.014.134.014.155 0 .307-.051.43-.153.16-.13.253-.324.253-.53v-2.803C28.971 18.209 30 16.624 30 14.99c0-1.246-.384-2.32-1.17-3.182-.784-.863-1.948-1.512-3.495-2.005l-.003-.002v.001z" transform="translate(-28 -1960) translate(28 1960)"/>
            </g>
        </g>
    </g>
</svg>
