<svg xmlns="http://www.w3.org/2000/svg" width="26" height="30" viewBox="0 0 26 30">
    <g fill="none" fill-rule="evenodd">
        <g fill-rule="nonzero">
            <g>
                <path fill="#EB9AA7" d="M7.5 15C3.358 15 0 18.358 0 22.5 0 26.642 3.358 30 7.5 30c4.142 0 7.5-3.358 7.5-7.5-.005-4.14-3.36-7.495-7.5-7.5zm0 14C3.91 29 1 26.09 1 22.5S3.91 16 7.5 16s6.5 2.91 6.5 6.5c-.004 3.588-2.912 6.496-6.5 6.5z" transform="translate(-37 -3181) translate(37 3181)"/>
                <path fill="#EB9AA7" d="M7.5 19c.222.002.443.026.66.07l-.739.465.533.847 1.688-1.063c.117-.073.198-.192.225-.329.026-.136-.006-.277-.088-.388L8.55 16.914l-.809.589.398.546c-1.293-.192-2.604.19-3.592 1.045-.987.856-1.552 2.1-1.547 3.406-.002.925.283 1.827.815 2.583l.818-.574c-.749-1.07-.841-2.466-.238-3.625C4.997 19.726 6.195 19 7.5 19zM10.345 20.433c.75 1.07.842 2.467.239 3.625s-1.8 1.884-3.105 1.884c-.222-.002-.443-.026-.66-.07l.739-.465-.533-.847-1.688 1.063c-.117.073-.198.192-.225.329-.026.136.006.277.087.388l1.23 1.688.809-.589-.4-.546c1.292.192 2.604-.19 3.591-1.045.988-.855 1.553-2.098 1.548-3.404.002-.925-.283-1.828-.815-2.584l-.817.573z" transform="translate(-37 -3181) translate(37 3181)"/>
                <path fill="#4197D3" d="M25.468 4.34c-.006-.016-.01-.031-.017-.047-.024-.054-.058-.104-.1-.147l-4-4c-.042-.041-.092-.075-.146-.1L21.159.03c-.042-.014-.086-.023-.13-.026C21.02.005 21.01 0 21 0H5c-.276 0-.5.224-.5.5V14h1V1h15v3.5c0 .276.224.5.5.5h3.5v21h-10v1H25c.276 0 .5-.224.5-.5v-22c0-.01-.006-.02-.006-.031-.003-.044-.012-.088-.026-.13zM21.5 4V1.707L23.793 4H21.5z" transform="translate(-37 -3181) translate(37 3181)"/>
                <path fill="#4197D3" d="M19.5 19H22.5V20H19.5zM15.5 19H18.5V20H15.5zM14 16H22.5V17H14zM7.5 10H12.5V11H7.5zM13.5 10H22.5V11H13.5zM17.5 13H22.5V14H17.5zM7.5 13H16.5V14H7.5zM7.5 7H16.5V8H7.5zM17.5 7H22.5V8H17.5zM16 22H22.5V23H16zM7.5 4H10.5V5H7.5zM11.5 4H13.5V5H11.5z" transform="translate(-37 -3181) translate(37 3181)"/>
            </g>
        </g>
    </g>
</svg>
